# xmcd CD database file generated by OrangeCD 5.2
#
# Track frame offsets:
#	150
#	14481
#	34434
#	50146
#	68688
#	85077
#	100753
#	116988
#	132636
#	151186
#	171687
#	187842
#
# Disc length: 2640 seconds
#
# Revision: 0
# Processed by: cddbd v1.5PL3 Copyright (c) Steve Scherf et al.
# Submitted via: OrangeCD 5.2
#
DISCID=aa0a4e0c
DTITLE=Harry Manx - West Eats Meet
DYEAR=2004
DGENRE=Blues
TTITLE0=Help Me
TTITLE1=Make Way For The Living
TTITLE2=Shadow Of The Whip
TTITLE3=The Great Unknown
TTITLE4=Forgive and Remember
TTITLE5=Sittin' On The Top Of The World
TTITLE6=That Knowing Look Of Fate
TTITLE7=Stir A Little Breeze
TTITLE8=Tough and Tender
TTITLE9=The Ways Of Love
TTITLE10=Something Of Your Grace
TTITLE11=Hector's Song
EXTD=
EXTT0=
EXTT1=
EXTT2=
EXTT3=
EXTT4=
EXTT5=
EXTT6=
EXTT7=
EXTT8=
EXTT9=
EXTT10=
EXTT11=
PLAYORDER=
